<?xml version="1.0" encoding="utf-8"?>
<!-- Generator: Adobe Illustrator 24.0.1, SVG Export Plug-In . SVG Version: 6.00 Build 0)  -->
<svg version="1.1" id="Слой_1" xmlns="http://www.w3.org/2000/svg" xmlns:xlink="http://www.w3.org/1999/xlink" x="0px" y="0px"
	 viewBox="0 0 521 125" style="enable-background:new 0 0 521 125;" xml:space="preserve">
<style type="text/css">
	.st0{fill:#FAFAFA;}
	.st1{fill:#DC2E1D;}
	.st2{fill:#181A19;}
	.st3{fill:#1A1C1B;}
	.st4{fill:#151616;}
	.st5{fill:#151716;}
	.st6{fill:#F9E11F;}
	.st7{fill:#171818;}
	.st8{fill:#197028;}
	.st9{fill:#F6D51A;}
	.st10{fill:#23211F;}
	.st11{fill:#AE291B;}
	.st12{fill:#F5EEE9;}
	.st13{fill:#C52D15;}
	.st14{fill:#136E2B;}
	.st15{fill:#F8DB1C;}
	.st16{fill:#C43217;}
	.st17{fill:#999999;}
	.st18{fill:#AE3A29;}
	.st19{fill:#282827;}
	.st20{fill:#F2F2F2;}
	.st21{fill:#F5F5F5;}
	.st22{fill:#7C7C7C;}
	.st23{fill:#E8E8E8;}
	.st24{fill:#EBECEC;}
	.st25{fill:#5C5C5C;}
	.st26{fill:#CDCDCD;}
	.st27{fill:#DDDDDD;}
	.st28{fill:#F6F6F6;}
	.st29{fill:#505050;}
	.st30{fill:#FFFFFF;}
</style>
<g>
	<g>
		<path class="st0" d="M0,125C0,83.33,0,41.67,0,0c173.67,0,347.33,0,521,0c0,41.67,0,83.33,0,125C347.33,125,173.67,125,0,125z
			 M112.9,84.11c0.33,0.33,0.67,0.65,1,0.98c1.19,1.7-4.15,3.35-0.04,5.08c0.21,0.11,0.42,0.23,0.63,0.34
			c-0.12-0.21-0.23-0.42-0.35-0.63c1.3-2.45,2.56-2.15,3.78,0.06c-0.13,0.17-0.25,0.35-0.38,0.52c0.17-0.12,0.35-0.25,0.52-0.37
			c1.07-0.11,2.14-0.23,2.77-0.29c-0.71-2.47-1.37-4.74-2.02-7.01c-1.23,0.55-2.97,1.32-4.71,2.1c-0.32-0.34-0.64-0.67-0.97-1.01
			c-0.15-0.4-0.29-0.8-0.44-1.2c-0.18,0.14-0.52,0.36-0.5,0.4C112.4,83.43,112.65,83.77,112.9,84.11z M286.64,18.87
			c0.11-0.29,0.22-0.58,0.34-0.87c-0.55-0.15-1.11-0.3-1.66-0.45C285.75,17.99,286.19,18.43,286.64,18.87z M278.77,86.87
			c0.41,1.44-0.93,5.2,3.2,1.91c-1.17-0.7-2.2-1.31-3.23-1.92c0.44-0.6,0.88-1.21,1.33-1.81c0.29-0.59,0.58-1.18,0.87-1.77
			c-0.57,0.22-1.14,0.44-1.71,0.65c-1.38,0.43-2.77,0.87-4.15,1.3c-0.68-0.97-1.35-1.94-2.03-2.91c-0.37,2.42-0.73,4.85-1.1,7.27
			c0.68,0.15,1.36,0.3,2.03,0.45c0.38-1.14,0.76-2.27,1.14-3.41C276.33,86.71,277.55,86.79,278.77,86.87z M283.11,14.95
			c1.24-0.95,2.48-1.9,3.72-2.85c-0.5-0.43-1-0.85-1.5-1.28c-0.76,1.36-1.53,2.73-2.29,4.09c-0.37,0.86-0.74,1.72-1.1,2.58
			c0.39,0.09,0.79,0.17,1.18,0.26C283.11,16.82,283.11,15.89,283.11,14.95z M154.05,90.06c6.19-2.05,0.18-3.71-0.48-5.54
			c0.12,1.81,0.25,3.62,0.37,5.43c-0.06,0.17-0.12,0.34-0.18,0.5C153.86,90.33,153.95,90.2,154.05,90.06z M196.01,89.02
			c0.99-0.88,2.45-1.61,2.81-2.7c0.26-0.79-0.94-2.06-1.78-3.67c-0.65,1.28-0.91,1.57-0.93,1.87c-0.08,1.49-0.09,2.98-0.13,4.48
			c-0.51,0.41-1.03,0.82-1.54,1.23c0.11,0.11,0.22,0.22,0.33,0.33C195.19,90.04,195.6,89.53,196.01,89.02z M212.87,10.84
			c-5.14,0.79-2.02,4.79-2.82,7.27c-2.51,1.4-4.03,1.08-4.08-2.2c-0.02-1.57-0.27-3.14-0.41-4.7c-0.4,0.04-0.81,0.08-1.21,0.11
			c-0.2,2.24-0.41,4.47-0.61,6.71c-0.31,0.14-0.54,0.36-0.69,0.65c-1.59-0.02-3.24-0.31-4.76,0c-3.44,0.69-4.56-0.82-4.39-3.98
			c0.06-1.15-0.03-2.3-0.04-3.46c0.15-0.17,0.31-0.35,0.7-0.79c-0.44,0.39-0.62,0.54-0.8,0.7c-1.12,0.5-2.24,1.01-2.38,1.07
			c0,3.09,0,5.35,0,7.13c9.1,0,17.74,0,26.38,0c-0.02-0.23-0.04-0.46-0.06-0.69c-1.55-0.25-3.11-0.5-4.66-0.76
			c0.05-2.23,0.1-4.47,0.14-6.7c0.37-0.3,0.74-0.59,1.12-0.89C213.82,10.5,213.35,10.67,212.87,10.84z M221.19,83.82
			c-1.04-1.01-2.08-2.02-3.12-3.03c-0.35,0.48-0.69,0.95-1.04,1.43c1.26,0.65,2.53,1.31,3.79,1.96c0.01,5.25-3.82-1.59-4.67,2.35
			c2.19,1.09,4.62,2.31,7.54,3.76c0.11-1.6,0.17-2.39,0.22-3.18c0.02-0.72,0.04-1.43,0.05-2.15
			C223.06,84.59,222.13,84.2,221.19,83.82z M107.01,86.99c0.69,1.2,1.38,2.39,2.07,3.59c0.45-0.53,0.9-1.06,1.36-1.6
			c-1.15-0.66-2.3-1.32-3.44-1.98c0.62-1.36,1.25-2.71,1.87-4.07c-2.8-0.86-5.61-1.71-8.31-2.54c0,4.2,0,7.25,0,10.29
			c0.34,0.19,0.68,0.39,1.01,0.58c0.56-1.41,1.12-2.83,1.68-4.24C104.5,87.02,105.75,87.01,107.01,86.99z M232.14,90.31
			c-0.78-0.45-1.56-0.9-2.34-1.35c-0.08,0.55-0.16,1.11-0.25,1.66c0.87-0.12,1.74-0.24,2.61-0.37c1.66,0.28,3.32,0.55,4.5,0.75
			c0-3.63,0-6.68,0-10.1c-1.59,0.26-3.34,0.55-5.09,0.84c-0.87,0.16-1.74,0.32-3.16,0.57c1.2,1.08,1.95,1.76,3.18,2.87
			c0.18-1.63,0.28-2.54,0.38-3.45C234.98,83.91,235.05,87.75,232.14,90.31z M41,89.98c0.62-2.57,1.24-5.14,2.05-8.46
			c0.64,1.27,0.97,1.93,1.13,2.24c1.46-0.5,3.31-1.74,4.17-1.25c1.06,0.61,1.44,2.61,1.83,4.09c0.27,1.01,0.05,2.15,0.05,3.23
			c0.23,0,0.47-0.01,0.7-0.01c0-2.46,0-4.93,0-7.54c1.56,0.21,2.82,0.39,4.08,0.56c0.25,5.65,5.78,1.54,7.19,5.04
			c0.37-0.62,0.74-1.24,1.11-1.85c-2.71-1.37-5.43-2.74-8.14-4.1c-4.97-0.47-9.94-0.93-14.71-1.38c0.23,3.6,0.42,6.57,0.61,9.54
			c-0.39,0-0.78,0-1.17,0c0.04,0.2,0.08,0.4,0.12,0.61C40.34,90.45,40.67,90.22,41,89.98z M301.03,19.96
			c0.89-0.22,1.77-0.43,2.66-0.65c-0.03-0.27-0.06-0.54-0.09-0.81c-0.86-0.16-1.72-0.31-2.57-0.47c-0.59-2.16-1.17-4.33-1.76-6.49
			c-0.24,0.01-0.49,0.03-0.74,0.04c-0.38,1.99-0.76,3.97-1.25,6.5c-1.31-2.88-2.27-5.02-3.24-7.15c-0.17-0.06-0.33-0.12-0.5-0.17
			c0.13,0.1,0.25,0.19,0.38,0.29c-0.72,2.76-1.44,5.53-2.13,8.17C294.79,19.47,297.91,19.72,301.03,19.96z M439.88,86.96
			c-7.06-2.45-13.99-2.21-20.81,0.92c0.3,0.98,0.6,1.95,0.9,2.93c-0.65,0.04-1.3,0.08-1.96,0.12c-2.4-1.69-4.51-1.94-5.97,1.17
			c-0.36,0.35-0.73,0.71-1.09,1.06c-3.33-1.55-7.07-2.58-9.89-4.78c-3.34-2.61-6.32-3.55-9.76-1.88c2.27,2.7,4.57,5.15,6.53,7.85
			c1.97,2.7,4.28,3.5,7.31,2.2c1.94-0.83,3.84-1.75,5.75-2.64c1.21,0.17,2.44,0.55,3.64,0.49c11.26-0.64,16.67,2.56,21.66,12.72
			c1.04,2.13,2.44,4.09,3.68,6.12c0.74-1.47,1.51-2.92,2.21-4.4c6.07-12.84,11.3-15.69,25.32-13.83c0.62,0.08,1.27-0.14,1.91-0.23
			c0.92,0.36,1.83,0.72,2.75,1.08c0.99,0.36,1.97,0.72,2.96,1.08c0,0,0.01,0.01,0.01,0.01c1.15,0.73,2.3,1.45,3.45,2.18
			c3.5,1.65,6.78,5.35,10.58,0.04c2.06-2.87,5.04-5.07,7.62-7.58c-0.76-0.35-2.2-1.03-3.65-1.71c-1.64-0.96-3.28-1.92-4.92-2.88
			c-2.68-0.11-6.33-1.37-7.85-0.09c-3.54,2.98-7.02,5.38-11.65,5.93c-1.44-0.62-2.87-1.24-4.31-1.86c-1.09-0.7-2.18-1.4-3.27-2.1
			C454.37,84.05,447.23,84.35,439.88,86.96z M328.88,118.53c0.4,0.21,0.81,0.41,1.21,0.62c0.52-0.31,1.09-0.56,1.54-0.95
			c27.91-24.35,59.65-42.79,92.45-59.53c26.03-13.29,52.11-26.48,78.16-39.75c1.82-0.93,3.51-2.12,5.26-3.19
			c-11.13,0.4-21.87,1.55-32.51,3.33c-30.65,5.14-60.24,13.72-87.53,28.98c-22.06,12.33-40.87,28.11-51.73,51.64
			C332.93,105.72,331.13,112.23,328.88,118.53z M7.75,74.83c3.63,0,6.4,0.04,9.17-0.01c34.95-0.58,69.91-0.85,104.84-1.93
			c13.41-0.42,26.08-4.91,37.69-11.86c7.91-4.74,10.66-10.57,8.92-18.66c-14.71,0-29.45,0-44.46,0c0.49,7.57-3.8,11.88-10.06,13.95
			c-7.06,2.33-14.33,4.5-21.68,5.35c-7.9,0.91-15.99,0.21-24.62,0.21c4.58-6.73,8.78-12.9,13.43-19.74
			c-17.24,0-33.21-0.03-49.19,0.05c-1.19,0.01-2.94,0.37-3.49,1.19C21.51,53.56,14.88,63.85,7.75,74.83z M311.79,42.14
			c-2.09,0-3.71,0-5.33,0c-33.65,0-67.3-0.02-100.95,0.02c-5.97,0.01-12.98-1.62-17.62,0.94c-4.43,2.45-6.41,9.35-9.42,14.33
			c-3.29,5.45-6.52,10.93-9.73,16.33c0.7,0.51,0.82,0.68,0.95,0.68c39.98,0.04,79.96,0.08,119.94,0.04c1.13,0,2.71-0.62,3.31-1.49
			c2.31-3.35,4.3-6.91,6.9-11.21c-23.18,0-45.33,0-67.48,0c1.44-5.73,4.9-6.93,10.1-6.82c16.65,0.34,33.31,0.13,49.97,0.13
			c12.65,0,12.65,0,18.72-11.23C311.31,43.56,311.39,43.23,311.79,42.14z M179.24,36.88c1.64,0.33,2.11,0.5,2.58,0.5
			c43.64,0.02,87.28,0.03,130.92-0.02c1.19,0,2.91-0.34,3.48-1.15c2.22-3.16,4.07-6.57,6.38-10.44c-41.47,0-81.94-0.01-122.41,0.03
			c-1.1,0-2.34,0.29-3.29,0.83C191.3,29.8,185.76,33.08,179.24,36.88z M164.06,37.11c0.22-0.47,0.43-0.94,0.65-1.41
			c-2.94-1.58-5.75-3.52-8.85-4.69c-10.21-3.87-20.87-5.29-31.78-5.25c-24.63,0.07-49.29,0.76-73.88-0.29
			c-12.03-0.51-20.01,5.88-28.99,11.65C68.83,37.11,116.45,37.11,164.06,37.11z M512.41,72.7c-1.26-0.9-1.62-1.29-2.07-1.47
			c-18.32-7.4-36.63-14.8-54.97-22.14c-1.17-0.47-2.81-1.07-3.75-0.62c-10.07,4.79-20.04,9.79-30.09,14.75
			c4.34,3.4,7.62,6.11,11.07,8.57c0.97,0.69,2.46,0.87,3.72,0.88C461.38,72.71,486.45,72.7,512.41,72.7z M324.75,25.76
			c-0.08,0.34-0.16,0.67-0.25,1.01c15.48,5.81,31.09,11.3,46.37,17.59c6.56,2.7,11.65,3.23,18.13-0.86
			c7.32-4.63,15.9-7.27,24.61-11.08c-3.47-2.46-6.41-6.33-9.41-6.38C377.73,25.56,351.24,25.76,324.75,25.76z M379.84,93.01
			c5.15-0.58,7.91,1.87,9.88,5.74c1.68,3.29,4.02,4.58,7.53,1.69c-1.36-1.67-2.7-3.06-3.76-4.65
			C389.03,89.06,387.85,88.75,379.84,93.01z M355.36,17.75c-1.92,0.16-3.58,0.31-6.05,0.52c10.83,3.38,12.38,2.85,15.16-4.6
			C356.19,13.09,356.19,13.09,355.36,17.75z M135.23,89.43c2.78-1.27,5.34-2.29,7.73-3.62c0.85-0.47,1.43-1.61,1.84-2.58
			c0.14-0.32-0.51-1.3-0.99-1.48c-0.48-0.19-1.66,0.12-1.74,0.41c-1.67,6.51-4.46,0.22-6.85,0.43
			C135.23,85.21,135.23,87.65,135.23,89.43z M389.45,18.4c0.03,0.36,0.07,0.72,0.1,1.09c3.01-0.17,6.02-0.35,9.32-0.54
			c-0.63-3.17-1.1-5.54-1.57-7.92c-0.52,0-1.05,0.01-1.57,0.01c-0.44,2.2-0.87,4.41-1.3,6.57C392.58,17.91,391.02,18.16,389.45,18.4
			z M223.1,19.41c1.31-0.16,3.54-0.44,4.43-0.55c-0.76-2.78-1.48-5.38-2.3-8.35c-1.27,0.49-2.68,1.03-2.92,1.12
			C222.63,14.78,222.85,17.01,223.1,19.41z M307.17,20.29c1.54-0.44,3.43-0.98,5.32-1.51c-0.78-2.71-1.56-5.41-2.56-8.86
			C308.91,13.75,308.18,16.52,307.17,20.29z M87.41,90.94c0-3.55,0-6.55,0-9.72c-0.96,0-2.22,0-3.02,0c0,3.31,0,6.5,0,9.72
			C85.41,90.94,86.54,90.94,87.41,90.94z M136.16,10.9c-3.47,4.56-2.4,7.53,2.28,8.27C137.74,16.64,137.03,14.07,136.16,10.9z
			 M348.57,17.24c-3.34-0.51-5.67-0.87-9.27-1.42C343.78,20.69,344.5,20.8,348.57,17.24z M18.72,81.74
			c-0.72,3.46-1.28,6.14-1.85,8.88C21.17,88.83,21.84,86.33,18.72,81.74z M68.02,82.79c-2.8-0.74-5.1-1.35-8.69-2.29
			C65.17,85.54,65.62,85.64,68.02,82.79z M80,81.79c-2.54,0-5.07,0-7.86,0C74.66,87.47,77.5,81.53,80,81.79z M182.25,10.66
			c-0.46,0.05-0.92,0.1-1.37,0.15c0.26,2.38,0.52,4.76,0.77,7.14c0.37-0.05,0.74-0.1,1.11-0.15
			C182.59,15.42,182.42,13.04,182.25,10.66z M369.89,17.76c0.68-0.09,1.35-0.17,2.03-0.26c-0.2-1.38-0.41-2.77-0.61-4.15
			c-0.59,0.09-1.7,0.19-1.7,0.28C369.61,15.01,369.77,16.38,369.89,17.76z M109.41,18.13c0.46-0.1,0.91-0.21,1.37-0.31
			c-0.26-2.39-0.52-4.79-0.78-7.18c-0.36,0.05-0.72,0.1-1.08,0.15C109.08,13.24,109.24,15.68,109.41,18.13z M66.44,87.36
			c-0.58-0.29-1.17-0.58-1.75-0.88c-0.77,1.31-1.54,2.61-2.32,3.92c0.37,0.23,0.74,0.46,1.11,0.69
			C64.47,89.85,65.45,88.6,66.44,87.36z M143.24,19.35c1.13-1.19,2.48-2.61,3.83-4.03c-0.22-0.22-0.43-0.44-0.65-0.65
			C145.3,16.31,144.19,17.95,143.24,19.35z M380.65,12.44c-0.79,1.1-1.59,1.72-1.52,2.22c0.1,0.76,0.81,1.43,1.26,2.14
			c0.52-0.5,1.44-0.98,1.46-1.5C381.87,14.54,381.25,13.77,380.65,12.44z M339.87,10.29c-0.27,0.34-0.54,0.67-0.81,1.01
			c1,0.74,1.99,1.49,2.99,2.23c0.2-0.26,0.41-0.52,0.61-0.78C341.74,11.92,340.81,11.11,339.87,10.29z M334.27,16.95
			c-0.99-0.38-1.5-0.74-2-0.73c-0.32,0.01-0.94,0.71-0.88,0.84c0.25,0.51,0.67,1.22,1.11,1.29
			C332.88,18.4,333.38,17.69,334.27,16.95z M213.14,84.63c0.42-0.04,0.85-0.08,1.27-0.12c-0.21-0.92-0.42-1.83-0.64-2.75
			c-0.28,0.05-0.56,0.11-0.84,0.16C213,82.83,213.07,83.73,213.14,84.63z M375.2,11.06c0.55-0.29,0.94-0.5,1.34-0.72
			c-0.36-0.4-0.67-0.89-1.11-1.14c-0.14-0.08-0.83,0.44-0.92,0.77C374.43,10.23,374.91,10.64,375.2,11.06z M145.86,11.92
			c-0.67-0.34-1.09-0.74-1.44-0.68c-0.35,0.05-0.63,0.55-0.94,0.85c0.37,0.25,0.73,0.68,1.1,0.69
			C144.92,12.78,145.27,12.33,145.86,11.92z M331.25,12.85c0.15,0.21,0.31,0.42,0.46,0.64c0.64-0.46,1.28-0.92,1.93-1.39
			c-0.15-0.21-0.3-0.41-0.44-0.62C332.55,11.94,331.9,12.4,331.25,12.85z M151.86,81.76c-0.22-0.08-0.45-0.17-0.67-0.25
			c-0.27,0.5-0.54,0.99-0.81,1.49c0.36,0.14,0.73,0.28,1.09,0.41C151.6,82.86,151.73,82.31,151.86,81.76z M70.6,14.95
			c0.21,0.16,0.41,0.33,0.64,0.47c0.02,0.01,0.18-0.22,0.27-0.34c-0.21-0.17-0.42-0.33-0.63-0.5C70.79,14.71,70.7,14.83,70.6,14.95z
			 M378.06,18.33c-0.25,0.15-0.62,0.25-0.68,0.44c-0.06,0.21,0.16,0.51,0.26,0.77c0.31-0.2,0.62-0.4,0.93-0.6
			C378.41,18.75,378.24,18.54,378.06,18.33z M74.63,89.75c-0.28-0.12-0.61-0.39-0.81-0.31c-0.2,0.08-0.25,0.51-0.37,0.78
			c0.28,0.12,0.61,0.39,0.81,0.31C74.45,90.46,74.51,90.03,74.63,89.75z M12.29,82.69c0.13-0.26,0.26-0.53,0.39-0.79
			c-0.27-0.02-0.54-0.08-0.8-0.04c-0.1,0.01-0.25,0.35-0.23,0.38C11.85,82.41,12.07,82.54,12.29,82.69z M75.91,14.5
			c-0.14-0.36-0.3-0.85-0.34-0.84c-0.41,0.09-0.81,0.27-1.21,0.42c0.12,0.29,0.28,0.84,0.36,0.83
			C75.12,14.86,75.51,14.66,75.91,14.5z M379.76,11.03c-0.07-0.13-0.15-0.27-0.22-0.4c-0.09,0.11-0.26,0.22-0.27,0.35
			c-0.01,0.13,0.13,0.26,0.2,0.39C379.57,11.26,379.66,11.15,379.76,11.03z M68.28,90.38c-0.14-0.05-0.28-0.1-0.43-0.15
			c-0.04,0.12-0.15,0.33-0.12,0.36c0.1,0.09,0.27,0.11,0.41,0.16C68.19,90.63,68.24,90.51,68.28,90.38z M179.74,19.17
			c-0.04-0.14-0.05-0.3-0.14-0.41c-0.03-0.04-0.23,0.06-0.35,0.09c0.04,0.14,0.05,0.3,0.14,0.41
			C179.42,19.3,179.62,19.2,179.74,19.17z M76.86,12.36c-0.13-0.13-0.24-0.24-0.36-0.35c-0.11,0.22-0.26,0.43-0.31,0.67
			c-0.02,0.08,0.2,0.22,0.31,0.33C76.62,12.78,76.74,12.57,76.86,12.36z"/>
		<path class="st1" d="M328.88,118.53c2.25-6.3,4.05-12.81,6.84-18.87c10.85-23.54,29.67-39.31,51.73-51.64
			c27.3-15.26,56.88-23.83,87.53-28.98c10.64-1.79,21.39-2.93,32.51-3.33c-1.75,1.07-3.43,2.27-5.26,3.19
			c-26.04,13.27-52.12,26.47-78.16,39.75c-32.81,16.75-64.54,35.18-92.45,59.53c-0.45,0.39-1.02,0.64-1.54,0.95
			C329.69,118.94,329.28,118.73,328.88,118.53z"/>
		<path class="st2" d="M7.75,74.83c7.13-10.98,13.75-21.27,20.55-31.45c0.55-0.82,2.3-1.19,3.49-1.19
			c15.97-0.08,31.95-0.05,49.19-0.05c-4.65,6.84-8.86,13.01-13.43,19.74c8.63,0,16.72,0.71,24.62-0.21
			c7.34-0.85,14.62-3.02,21.68-5.35c6.27-2.07,10.55-6.38,10.06-13.95c15,0,29.74,0,44.46,0c1.75,8.08-1,13.92-8.92,18.66
			c-11.61,6.95-24.28,11.44-37.69,11.86c-34.93,1.09-69.89,1.35-104.84,1.93C14.15,74.87,11.39,74.83,7.75,74.83z"/>
		<path class="st3" d="M311.79,42.14c-0.41,1.1-0.49,1.42-0.64,1.71c-6.06,11.23-6.06,11.23-18.72,11.23
			c-16.66,0-33.32,0.21-49.97-0.13c-5.2-0.11-8.65,1.1-10.1,6.82c22.15,0,44.3,0,67.48,0c-2.61,4.3-4.6,7.86-6.9,11.21
			c-0.6,0.87-2.18,1.49-3.31,1.49c-39.98,0.05-79.96,0-119.94-0.04c-0.13,0-0.25-0.17-0.95-0.68c3.21-5.4,6.44-10.88,9.73-16.33
			c3.01-4.98,4.99-11.88,9.42-14.33c4.63-2.56,11.64-0.93,17.62-0.94c33.65-0.04,67.3-0.02,100.95-0.02
			C308.08,42.14,309.7,42.14,311.79,42.14z"/>
		<path class="st4" d="M179.24,36.88c6.53-3.8,12.06-7.08,17.66-10.25c0.96-0.54,2.19-0.83,3.29-0.83
			c40.47-0.04,80.94-0.03,122.41-0.03c-2.31,3.87-4.17,7.28-6.38,10.44c-0.57,0.81-2.29,1.15-3.48,1.15
			c-43.64,0.05-87.28,0.04-130.92,0.02C181.35,37.38,180.88,37.21,179.24,36.88z"/>
		<path class="st5" d="M164.06,37.11c-47.62,0-95.23,0-142.85,0c8.98-5.78,16.97-12.17,28.99-11.65
			c24.58,1.05,49.25,0.37,73.88,0.29c10.91-0.03,21.56,1.38,31.78,5.25c3.1,1.17,5.91,3.11,8.85,4.69
			C164.49,36.17,164.28,36.64,164.06,37.11z"/>
		<path class="st6" d="M512.41,72.7c-25.95,0-51.02,0.01-76.09-0.04c-1.26,0-2.75-0.19-3.72-0.88c-3.45-2.46-6.73-5.17-11.07-8.57
			c10.05-4.96,20.02-9.95,30.09-14.75c0.95-0.45,2.58,0.15,3.75,0.62c18.34,7.34,36.66,14.74,54.97,22.14
			C510.78,71.41,511.15,71.8,512.41,72.7z"/>
		<path class="st7" d="M324.75,25.76c26.49,0,52.98-0.2,79.45,0.28c3,0.05,5.94,3.92,9.41,6.38c-8.72,3.81-17.29,6.45-24.61,11.08
			c-6.48,4.09-11.57,3.56-18.13,0.86c-15.28-6.29-30.89-11.78-46.37-17.59C324.59,26.43,324.67,26.09,324.75,25.76z"/>
		<path class="st8" d="M439.89,113.24c-1.23-2.04-2.63-3.99-3.68-6.12c-4.99-10.17-10.4-13.36-21.66-12.72
			c-1.2,0.07-2.43-0.31-3.64-0.49c0.04-0.25,0.06-0.5,0.06-0.75c0.36-0.35,0.73-0.71,1.09-1.06c1.99-0.39,3.98-0.78,5.97-1.17
			c0.65-0.04,1.3-0.08,1.96-0.12c9.08-1.4,14.83,3.49,19.53,10.34C439.63,105.18,439.76,109.21,439.89,113.24z"/>
		<path class="st9" d="M439.89,113.24c-0.13-4.03-0.25-8.06-0.38-12.09c-0.01-0.3,0.12-0.51,0.39-0.64
			c5.71-8.17,13.22-11.65,23.15-8.9c0.34,0.09,0.85-0.42,1.28-0.65c1.44,0.62,2.87,1.24,4.31,1.86c0.23,0.65,0.47,1.3,0.7,1.95
			c-0.64,0.08-1.29,0.31-1.91,0.23c-14.02-1.86-19.25,1-25.32,13.83C441.39,110.32,440.62,111.77,439.89,113.24z"/>
		<path class="st10" d="M469.32,94.77c-0.23-0.65-0.47-1.3-0.7-1.95c4.63-0.55,8.11-2.95,11.65-5.93c1.52-1.28,5.17-0.02,7.85,0.09
			c-2.17,2.2-4.16,4.64-6.57,6.54c-1.9,1.49-4.32,2.3-6.51,3.41c0,0-0.01-0.01-0.01-0.01c-0.99-0.36-1.97-0.72-2.96-1.08
			C471.16,95.49,470.24,95.13,469.32,94.77z"/>
		<path class="st11" d="M410.96,93.16c0,0.25-0.02,0.5-0.06,0.75c-1.92,0.88-3.81,1.81-5.75,2.64c-3.03,1.29-5.34,0.5-7.31-2.2
			c-1.96-2.7-4.26-5.15-6.53-7.85c3.44-1.66,6.41-0.72,9.76,1.88C403.89,90.58,407.63,91.61,410.96,93.16z"/>
		<path class="st12" d="M439.9,100.51c-0.27,0.12-0.4,0.34-0.39,0.64c-4.71-6.85-10.46-11.74-19.54-10.34
			c-0.3-0.98-0.6-1.95-0.9-2.93c1.21,0.16,2.49,0.66,3.63,0.44c6.61-1.3,12.38,0.05,17.12,5.01
			C439.85,95.72,439.87,98.12,439.9,100.51z"/>
		<path class="st13" d="M439.9,100.51c-0.02-2.39-0.05-4.79-0.07-7.18c0.08-0.36,0.16-0.71,0.25-1.07
			c5.14-3.87,10.73-5.45,17.1-3.57c1.2,0.36,2.58,0.13,3.88,0.18c1.09,0.7,2.18,1.4,3.27,2.1c-0.43,0.23-0.93,0.74-1.27,0.65
			C453.11,88.86,445.61,92.34,439.9,100.51z"/>
		<path class="st14" d="M379.84,93.01c8.01-4.26,9.19-3.95,13.65,2.77c1.05,1.59,2.4,2.98,3.76,4.65c-3.51,2.9-5.84,1.61-7.53-1.69
			C387.75,94.88,384.99,92.43,379.84,93.01z"/>
		<path class="st15" d="M493.05,89.87c1.45,0.68,2.9,1.35,3.65,1.71c-2.57,2.51-5.56,4.71-7.62,7.58c-3.8,5.31-7.08,1.61-10.59-0.04
			c3.59,0.39,5.9-0.87,7.87-4.22C487.67,92.68,490.76,91.51,493.05,89.87z"/>
		<path class="st16" d="M493.05,89.87c-2.29,1.64-5.38,2.81-6.68,5.03c-1.97,3.35-4.28,4.6-7.87,4.22c-1.15-0.73-2.3-1.45-3.45-2.18
			c2.19-1.11,4.61-1.92,6.51-3.41c2.41-1.89,4.4-4.33,6.57-6.54C489.77,87.95,491.41,88.91,493.05,89.87z"/>
		<path class="st17" d="M213.04,17.92c1.55,0.25,3.11,0.5,4.66,0.76c0.02,0.23,0.04,0.46,0.06,0.69c-8.64,0-17.28,0-26.38,0
			c0-1.78,0-4.05,0-7.13c0.14-0.06,1.26-0.57,2.38-1.07c0,0,0.1,0.1,0.1,0.1c0.02,1.15,0.11,2.31,0.05,3.46
			c-0.17,3.16,0.95,4.66,4.39,3.98c1.53-0.31,3.17-0.02,4.76,0c0.23-0.22,0.46-0.43,0.69-0.65c0.2-2.24,0.41-4.47,0.61-6.71
			c0.4-0.04,0.81-0.08,1.21-0.11c0.14,1.57,0.39,3.13,0.41,4.7c0.05,3.27,1.58,3.59,4.08,2.2
			C211.05,18.05,212.04,17.98,213.04,17.92z"/>
		<path class="st18" d="M440.07,92.26c-0.08,0.36-0.16,0.71-0.25,1.07c-4.75-4.96-10.51-6.31-17.12-5.01
			c-1.14,0.22-2.41-0.27-3.63-0.44c6.81-3.13,13.75-3.37,20.81-0.92C439.94,88.73,440.01,90.49,440.07,92.26z"/>
		<path class="st19" d="M440.07,92.26c-0.06-1.77-0.12-3.54-0.19-5.3c7.35-2.61,14.49-2.91,21.17,1.91
			c-1.3-0.04-2.67,0.18-3.88-0.18C450.79,86.81,445.21,88.39,440.07,92.26z"/>
		<path class="st20" d="M355.36,17.75c0.83-4.66,0.83-4.66,9.11-4.08c-2.78,7.45-4.33,7.98-15.16,4.6
			C351.79,18.06,353.45,17.91,355.36,17.75z M358.78,17.72c0.5-0.2,0.99-0.4,1.49-0.61c-0.47-1.21-0.93-2.43-1.4-3.64
			c-0.31,0.09-0.62,0.19-0.93,0.28C358.22,15.07,358.5,16.39,358.78,17.72z"/>
		<path class="st20" d="M294.05,10.94c0.96,2.13,1.93,4.26,3.24,7.15c0.49-2.53,0.87-4.52,1.25-6.5c0.25-0.01,0.49-0.03,0.74-0.04
			c0.59,2.16,1.17,4.33,1.76,6.49c0,0.64,0,1.29,0,1.93c-3.12-0.25-6.24-0.5-9.23-0.74c0.69-2.64,1.41-5.41,2.13-8.17
			C293.93,11.06,294.05,10.94,294.05,10.94z"/>
		<path class="st21" d="M135.23,89.43c0-1.78,0-4.22,0-6.84c2.39-0.2,5.18,6.08,6.85-0.43c0.07-0.29,1.26-0.6,1.74-0.41
			c0.48,0.19,1.12,1.16,0.99,1.48c-0.42,0.96-1,2.11-1.84,2.58C140.57,87.14,138.01,88.16,135.23,89.43z"/>
		<path class="st22" d="M55,82.84c-1.26-0.17-2.52-0.34-4.08-0.56c0,2.62,0,5.08,0,7.54c-0.23,0-0.47,0.01-0.7,0.01
			c0-1.08,0.22-2.22-0.05-3.23c-0.39-1.48-0.77-3.48-1.83-4.09c-0.85-0.49-2.7,0.76-4.17,1.25c-0.16-0.31-0.49-0.97-1.13-2.24
			c-0.8,3.32-1.42,5.89-2.05,8.46l0.06,0.1c-0.19-2.97-0.38-5.94-0.61-9.54c4.77,0.45,9.74,0.92,14.71,1.38
			C54.98,82.21,54.93,82.51,55,82.84z"/>
		<path class="st23" d="M113.86,90.17c-4.11-1.73,1.24-3.38,0.04-5.08l0.21-0.21c1.74-0.78,3.48-1.55,4.71-2.1
			c0.65,2.27,1.31,4.54,2.02,7.01c-0.62,0.07-1.69,0.18-2.77,0.29l-0.15-0.15c-1.22-2.21-2.48-2.51-3.78-0.06L113.86,90.17z"/>
		<path class="st24" d="M389.45,18.4c1.56-0.25,3.13-0.49,4.98-0.79c0.43-2.17,0.86-4.37,1.3-6.57c0.52,0,1.05-0.01,1.57-0.01
			c0.47,2.37,0.94,4.75,1.57,7.92c-3.3,0.19-6.31,0.37-9.32,0.54C389.52,19.13,389.49,18.77,389.45,18.4z"/>
		<path class="st25" d="M103.25,87.03c-0.56,1.41-1.12,2.83-1.68,4.24c-0.34-0.19-0.68-0.39-1.01-0.58c0-3.04,0-6.09,0-10.29
			c2.71,0.83,5.51,1.68,8.31,2.54c-1.78-0.38-3.56-0.76-5.62-1.2C103.25,83.9,103.25,85.47,103.25,87.03z"/>
		<path class="st20" d="M223.1,19.41c-0.24-2.4-0.47-4.63-0.79-7.78c0.24-0.09,1.65-0.63,2.92-1.12c0.82,2.97,1.53,5.57,2.3,8.35
			C226.64,18.97,224.41,19.25,223.1,19.41z"/>
		<path class="st23" d="M307.17,20.29c1-3.77,1.74-6.53,2.77-10.37c1,3.45,1.78,6.15,2.56,8.86
			C310.61,19.31,308.71,19.85,307.17,20.29z"/>
		<path class="st25" d="M231.57,81.75c1.75-0.29,3.51-0.58,5.09-0.84c0,3.43,0,6.47,0,10.1c-1.18-0.2-2.84-0.47-4.5-0.75l-0.02,0.05
			c2.91-2.57,2.84-6.4-0.17-8.57C231.97,81.74,231.57,81.75,231.57,81.75z"/>
		<path class="st25" d="M87.41,90.94c-0.87,0-2.01,0-3.02,0c0-3.23,0-6.41,0-9.72c0.8,0,2.07,0,3.02,0
			C87.41,84.39,87.41,87.39,87.41,90.94z"/>
		<path class="st21" d="M136.16,10.9c0.87,3.17,1.58,5.73,2.28,8.27C133.76,18.43,132.69,15.46,136.16,10.9z"/>
		<path class="st23" d="M103.25,87.03c0-1.57,0-3.14,0-5.3c2.06,0.44,3.84,0.82,5.62,1.2c-0.62,1.36-1.25,2.71-1.87,4.07l0.01-0.01
			C105.75,87.01,104.5,87.02,103.25,87.03z"/>
		<path class="st26" d="M221.2,83.82c0.93,0.38,1.86,0.77,2.79,1.15c-0.52,0.43-1.05,0.85-1.57,1.28c0.5,0.29,1.01,0.58,1.51,0.87
			c-0.06,0.79-0.11,1.58-0.22,3.18c-2.92-1.46-5.36-2.67-7.54-3.76c0.84-3.93,4.68,2.9,4.67-2.35
			C220.95,84.06,221.07,83.94,221.2,83.82z"/>
		<path class="st27" d="M275.11,86.64c-0.38,1.14-0.76,2.27-1.14,3.41c-0.68-0.15-1.36-0.3-2.03-0.45c0.37-2.42,0.73-4.85,1.1-7.27
			c0.68,0.97,1.35,1.94,2.03,2.91C275.09,85.71,275.1,86.17,275.11,86.64z"/>
		<path class="st21" d="M348.57,17.24c-4.07,3.56-4.8,3.45-9.27-1.42C342.91,16.36,345.23,16.72,348.57,17.24z"/>
		<path class="st21" d="M18.72,81.74c3.12,4.59,2.45,7.1-1.85,8.88C17.44,87.88,18,85.2,18.72,81.74z"/>
		<path class="st26" d="M55,82.84c-0.07-0.33-0.01-0.63,0.16-0.92c2.71,1.37,5.43,2.74,8.14,4.1c-0.37,0.62-0.74,1.24-1.11,1.85
			C60.78,84.38,55.24,88.49,55,82.84z"/>
		<path class="st24" d="M213.04,17.92c-0.99,0.07-1.99,0.13-2.98,0.2c0.8-2.48-2.32-6.48,2.82-7.27l0.31,0.37
			C213.13,13.45,213.09,15.68,213.04,17.92z"/>
		<path class="st26" d="M68.02,82.79c-2.4,2.86-2.86,2.76-8.69-2.29C62.93,81.44,65.22,82.05,68.02,82.79z"/>
		<path class="st28" d="M80,81.79c-2.5-0.26-5.34,5.67-7.86,0C74.93,81.79,77.46,81.79,80,81.79z"/>
		<path class="st20" d="M195.98,88.98c0.04-1.49,0.05-2.99,0.13-4.48c0.02-0.3,0.28-0.58,0.93-1.87c0.84,1.61,2.04,2.88,1.78,3.67
			c-0.36,1.09-1.82,1.82-2.81,2.7L195.98,88.98z"/>
		<path class="st29" d="M182.25,10.66c0.17,2.38,0.34,4.76,0.51,7.14c-0.37,0.05-0.74,0.1-1.11,0.15c-0.26-2.38-0.52-4.76-0.77-7.14
			C181.33,10.76,181.79,10.71,182.25,10.66z"/>
		<path class="st24" d="M369.89,17.76c-0.12-1.38-0.27-2.75-0.28-4.13c0-0.09,1.11-0.19,1.7-0.28c0.2,1.38,0.41,2.77,0.61,4.15
			C371.24,17.59,370.56,17.67,369.89,17.76z"/>
		<path class="st21" d="M153.94,89.95c-0.12-1.81-0.25-3.62-0.37-5.43c0.66,1.83,6.67,3.49,0.48,5.54L153.94,89.95z"/>
		<path class="st29" d="M109.41,18.13c-0.16-2.45-0.33-4.89-0.49-7.34c0.36-0.05,0.72-0.1,1.08-0.15c0.26,2.39,0.52,4.79,0.78,7.18
			C110.32,17.92,109.86,18.03,109.41,18.13z"/>
		<path class="st26" d="M66.44,87.36c-0.99,1.24-1.97,2.49-2.96,3.73c-0.37-0.23-0.74-0.46-1.11-0.69c0.77-1.31,1.54-2.61,2.32-3.92
			C65.27,86.78,65.86,87.07,66.44,87.36z"/>
		<path class="st21" d="M143.24,19.35c0.95-1.4,2.06-3.04,3.18-4.69c0.22,0.22,0.43,0.44,0.65,0.65
			C145.72,16.74,144.36,18.16,143.24,19.35z"/>
		<path class="st24" d="M380.65,12.44c0.6,1.33,1.22,2.1,1.19,2.85c-0.02,0.52-0.94,1-1.46,1.5c-0.45-0.71-1.16-1.38-1.26-2.14
			C379.06,14.16,379.86,13.54,380.65,12.44z"/>
		<path class="st20" d="M283.03,14.92c0.76-1.36,1.53-2.73,2.29-4.09c0.5,0.43,1,0.85,1.5,1.28c-1.24,0.95-2.48,1.9-3.72,2.85
			C283.11,14.95,283.03,14.92,283.03,14.92z"/>
		<path class="st12" d="M418.02,90.93c-1.99,0.39-3.98,0.78-5.97,1.17C413.5,88.99,415.62,89.23,418.02,90.93z"/>
		<path class="st23" d="M106.99,87.01c1.15,0.66,2.3,1.32,3.44,1.98c-0.45,0.53-0.9,1.06-1.36,1.6c-0.69-1.2-1.38-2.39-2.07-3.59
			C107.01,86.99,106.99,87.01,106.99,87.01z"/>
		<path class="st25" d="M275.11,86.64c-0.01-0.47-0.03-0.93-0.04-1.4c1.38-0.43,2.77-0.87,4.15-1.3c0.28,0.37,0.56,0.75,0.84,1.12
			c-0.44,0.6-0.88,1.21-1.33,1.81c0,0,0.02,0,0.02,0C277.55,86.79,276.33,86.71,275.11,86.64z"/>
		<path class="st27" d="M278.74,86.87c1.03,0.61,2.05,1.22,3.23,1.92c-4.13,3.28-2.79-0.48-3.2-1.92
			C278.76,86.87,278.74,86.87,278.74,86.87z"/>
		<path class="st20" d="M231.57,81.75c0,0,0.4-0.01,0.4-0.01c-0.1,0.91-0.2,1.82-0.38,3.45c-1.23-1.11-1.98-1.78-3.18-2.87
			C229.82,82.06,230.69,81.91,231.57,81.75z"/>
		<path class="st21" d="M339.87,10.29c0.93,0.82,1.86,1.63,2.79,2.45c-0.2,0.26-0.41,0.52-0.61,0.78c-1-0.74-1.99-1.49-2.99-2.23
			C339.34,10.96,339.61,10.62,339.87,10.29z"/>
		<path class="st26" d="M220.83,84.19c-1.26-0.65-2.53-1.31-3.79-1.96c0.35-0.48,0.69-0.95,1.04-1.43c1.04,1.01,2.08,2.02,3.12,3.03
			C221.07,83.94,220.95,84.06,220.83,84.19z"/>
		<path class="st21" d="M334.27,16.95c-0.89,0.74-1.38,1.46-1.77,1.4c-0.44-0.06-0.86-0.77-1.11-1.29
			c-0.06-0.13,0.56-0.83,0.88-0.84C332.77,16.21,333.28,16.56,334.27,16.95z"/>
		<path class="st26" d="M213.14,84.63c-0.07-0.9-0.13-1.81-0.2-2.71c0.28-0.05,0.56-0.11,0.84-0.16c0.21,0.92,0.42,1.83,0.64,2.75
			C213.99,84.55,213.56,84.59,213.14,84.63z"/>
		<path class="st20" d="M232.16,90.26c-0.87,0.12-1.74,0.24-2.61,0.37c0.08-0.55,0.16-1.11,0.25-1.66c0.78,0.45,1.56,0.9,2.34,1.35
			C232.14,90.31,232.16,90.26,232.16,90.26z"/>
		<path class="st24" d="M375.2,11.06c-0.29-0.42-0.77-0.82-0.7-1.08c0.09-0.34,0.78-0.85,0.92-0.77c0.44,0.25,0.75,0.74,1.11,1.14
			C376.14,10.55,375.74,10.76,375.2,11.06z"/>
		<path class="st23" d="M301.03,19.96c0-0.64,0-1.29,0-1.93c0.86,0.16,1.72,0.31,2.57,0.47c0.03,0.27,0.06,0.54,0.09,0.81
			C302.8,19.53,301.92,19.75,301.03,19.96z"/>
		<path class="st21" d="M145.86,11.92c-0.58,0.42-0.94,0.87-1.28,0.86c-0.37-0.01-0.73-0.44-1.1-0.69c0.31-0.3,0.59-0.81,0.94-0.85
			C144.77,11.18,145.19,11.58,145.86,11.92z"/>
		<path class="st21" d="M331.25,12.85c0.65-0.46,1.3-0.91,1.94-1.37c0.15,0.21,0.3,0.41,0.44,0.62c-0.64,0.46-1.28,0.92-1.93,1.39
			C331.56,13.28,331.41,13.06,331.25,12.85z"/>
		<path class="st21" d="M151.86,81.76c-0.13,0.55-0.25,1.1-0.38,1.65c-0.36-0.14-0.73-0.28-1.09-0.41c0.27-0.5,0.54-0.99,0.81-1.49
			C151.41,81.59,151.63,81.68,151.86,81.76z"/>
		<path class="st16" d="M472.07,95.85c0.99,0.36,1.97,0.72,2.96,1.08C474.05,96.57,473.06,96.21,472.07,95.85z"/>
		<path class="st22" d="M70.6,14.95c0.09-0.12,0.19-0.24,0.28-0.36c0.21,0.17,0.42,0.33,0.63,0.5c-0.09,0.12-0.26,0.35-0.27,0.34
			C71.02,15.28,70.81,15.11,70.6,14.95z"/>
		<path class="st24" d="M378.06,18.33c0.18,0.22,0.35,0.42,0.51,0.62c-0.31,0.2-0.62,0.4-0.93,0.6c-0.1-0.26-0.33-0.56-0.26-0.77
			C377.44,18.58,377.81,18.48,378.06,18.33z"/>
		<path class="st20" d="M223.93,87.12c-0.5-0.29-1.01-0.58-1.51-0.87c0.52-0.43,1.05-0.85,1.57-1.28
			C223.97,85.68,223.95,86.4,223.93,87.12z"/>
		<path class="st28" d="M74.63,89.75c-0.12,0.28-0.18,0.71-0.38,0.78c-0.2,0.08-0.54-0.19-0.81-0.31c0.12-0.28,0.18-0.71,0.37-0.78
			C74.01,89.36,74.35,89.63,74.63,89.75z"/>
		<path class="st20" d="M196.01,89.02c-0.41,0.51-0.83,1.02-1.24,1.53c-0.11-0.11-0.22-0.22-0.33-0.33
			c0.51-0.41,1.03-0.82,1.54-1.23C195.98,88.98,196.01,89.02,196.01,89.02z"/>
		<path class="st17" d="M286.64,18.87c-0.44-0.44-0.88-0.88-1.33-1.32c0.55,0.15,1.11,0.3,1.66,0.45
			C286.92,18.31,286.81,18.6,286.64,18.87z"/>
		<path class="st7" d="M283.11,14.95c0,0.93,0,1.86,0,2.79c-0.39-0.09-0.79-0.17-1.18-0.26c0.37-0.86,0.74-1.72,1.1-2.58
			C283.03,14.92,283.11,14.95,283.11,14.95z"/>
		<path class="st21" d="M12.29,82.69c-0.22-0.14-0.44-0.28-0.63-0.45c-0.03-0.03,0.13-0.36,0.23-0.38c0.26-0.04,0.53,0.02,0.8,0.04
			C12.55,82.16,12.42,82.43,12.29,82.69z"/>
		<path class="st22" d="M75.91,14.5c-0.4,0.16-0.79,0.36-1.19,0.42c-0.08,0.01-0.24-0.54-0.36-0.83c0.4-0.15,0.8-0.33,1.21-0.42
			C75.61,13.65,75.77,14.14,75.91,14.5z"/>
		<path class="st24" d="M379.76,11.03c-0.09,0.11-0.19,0.23-0.28,0.34c-0.07-0.13-0.21-0.27-0.2-0.39c0.01-0.12,0.17-0.23,0.27-0.35
			C379.61,10.77,379.69,10.9,379.76,11.03z"/>
		<path class="st25" d="M279.22,83.94c0.57-0.22,1.14-0.44,1.71-0.65c-0.29,0.59-0.58,1.18-0.87,1.77
			C279.78,84.68,279.5,84.31,279.22,83.94z"/>
		<path class="st24" d="M212.87,10.84c0.47-0.17,0.95-0.35,1.42-0.52c-0.37,0.3-0.74,0.59-1.11,0.89
			C213.18,11.21,212.87,10.84,212.87,10.84z"/>
		<path class="st22" d="M41,89.98c-0.33,0.23-0.66,0.47-0.99,0.7c-0.04-0.2-0.08-0.4-0.12-0.61c0.39,0,0.78,0,1.17,0
			C41.05,90.08,41,89.98,41,89.98z"/>
		<path class="st28" d="M68.28,90.38c-0.04,0.12-0.09,0.25-0.13,0.37c-0.14-0.05-0.31-0.07-0.41-0.16
			c-0.04-0.03,0.07-0.23,0.12-0.36C68,90.28,68.14,90.33,68.28,90.38z"/>
		<path class="st24" d="M179.74,19.17c-0.12,0.03-0.32,0.13-0.35,0.09c-0.08-0.11-0.1-0.27-0.14-0.41c0.12-0.03,0.32-0.13,0.35-0.09
			C179.69,18.87,179.7,19.03,179.74,19.17z"/>
		<path class="st23" d="M112.9,84.12c-0.24-0.35-0.5-0.69-0.7-1.05c-0.02-0.03,0.33-0.26,0.5-0.4c0.15,0.4,0.29,0.8,0.43,1.21
			C113.13,83.88,112.9,84.12,112.9,84.12z"/>
		<path class="st22" d="M76.86,12.36c-0.12,0.21-0.24,0.43-0.36,0.64c-0.11-0.11-0.33-0.25-0.31-0.33c0.05-0.23,0.2-0.45,0.31-0.67
			C76.61,12.11,76.72,12.22,76.86,12.36z"/>
		<path class="st23" d="M113.9,85.09c-0.33-0.33-0.67-0.65-1-0.97c0,0,0.24-0.24,0.24-0.24c0.32,0.33,0.65,0.67,0.97,1.01
			C114.11,84.88,113.9,85.09,113.9,85.09z"/>
		<path class="st20" d="M293.93,11.06c-0.13-0.1-0.25-0.19-0.38-0.29c0.17,0.06,0.33,0.12,0.5,0.17
			C294.05,10.94,293.93,11.06,293.93,11.06z"/>
		<path class="st28" d="M193.75,11.15c0.18-0.15,0.35-0.31,0.8-0.7c-0.39,0.44-0.54,0.61-0.7,0.79
			C193.85,11.25,193.75,11.15,193.75,11.15z"/>
		<path class="st23" d="M114.14,89.88c0.12,0.21,0.23,0.42,0.35,0.63c-0.21-0.11-0.42-0.23-0.63-0.34
			C113.86,90.17,114.14,89.88,114.14,89.88z"/>
		<path class="st23" d="M118.07,90.09c-0.17,0.12-0.35,0.25-0.52,0.37c0.13-0.17,0.25-0.35,0.38-0.52
			C117.93,89.94,118.07,90.09,118.07,90.09z"/>
		<path class="st21" d="M154.05,90.06c-0.1,0.13-0.19,0.26-0.29,0.39c0.06-0.17,0.12-0.34,0.18-0.5
			C153.94,89.95,154.05,90.06,154.05,90.06z"/>
		<path class="st20" d="M286.64,18.87c0.17-0.27,0.28-0.56,0.34-0.87C286.86,18.29,286.75,18.58,286.64,18.87z"/>
		<path class="st28" d="M203.74,18.03c-0.23,0.22-0.46,0.44-0.69,0.65C203.2,18.39,203.43,18.17,203.74,18.03z"/>
		<path class="st0" d="M358.78,17.72c-0.28-1.32-0.55-2.65-0.83-3.97c0.31-0.09,0.62-0.19,0.93-0.28c0.47,1.21,0.93,2.43,1.4,3.64
			C359.77,17.31,359.28,17.52,358.78,17.72z"/>
	</g>
</g>
<polygon class="st30" points="33.13,79 253.27,79 292.23,79 292.23,107.39 33.13,104.86 "/>
<polygon class="st30" points="62.03,4.46 67.61,20.69 323.66,20.69 342.42,20.69 339.38,0 "/>
</svg>
